# xmcd CD database file generated by OrangeCD 6.2
#
# Track frame offsets:
#	150
#	21563
#	37882
#	54261
#	69403
#	87889
#	103891
#	119587
#	136699
#	156057
#	172326
#	189377
#	203302
#	223909
#	242434
#	258437
#
# Disc length: 3657 seconds
#
# Revision: 0
# Processed by: cddbd v1.5.2PL0 Copyright (c) Steve Scherf et al.
# Submitted via: OrangeCD 6.2
#
DISCID=dc0e4710
DTITLE=Various Artist - Latino Total
DYEAR=1900
DGENRE=
TTITLE0=Banda Caliente - De Hombre A Mujer
TTITLE1=Andy Rivalta - Mi Nena Mi Nena
TTITLE2=Gabriela - Mujer Latina
TTITLE3=Banda Caliente - 1, 2, 3
TTITLE4=Ultradance - Baila Sexy Thing
TTITLE5=Banda Caliente - Brinca
TTITLE6=XTC Planet - Mucho Mambo Sway
TTITLE7=Banda Caliente - Baila Baila Conmio
TTITLE8=Gabriela - Oye
TTITLE9=Furia Gitana - Tequila Boom Boom
TTITLE10=Randy F - Bailamos
TTITLE11=Andy Rivalta - Corazon Latino
TTITLE12=Gabriela - Gozate La Vida
TTITLE13=Banda Caliente - Levantando Las Manos
TTITLE14=Banda Caliente - Prueba Con Un Beso
TTITLE15=Andy Rivalta - Ave Maria
EXTD=
EXTT0=
EXTT1=
EXTT2=
EXTT3=
EXTT4=
EXTT5=
EXTT6=
EXTT7=
EXTT8=
EXTT9=
EXTT10=
EXTT11=
EXTT12=
EXTT13=
EXTT14=
EXTT15=
PLAYORDER=
